<svg xmlns="http://www.w3.org/2000/svg" viewBox="0 0 500 500"><g id="freepik--background-complete--inject-11"><polygon points="47.48 247.93 98.11 247.69 148.74 247.6 250 247.43 351.26 247.6 401.89 247.68 452.52 247.93 401.89 248.17 351.26 248.26 250 248.43 148.74 248.26 98.11 248.17 47.48 247.93" style="fill:#ebebeb"></polygon><polygon points="47.48 282.51 98.11 282.27 148.74 282.18 250 282.01 351.26 282.18 401.89 282.27 452.52 282.51 401.89 282.76 351.26 282.85 250 283.01 148.74 282.84 98.11 282.75 47.48 282.51" style="fill:#ebebeb"></polygon><polygon points="47.48 317.1 98.11 316.85 148.74 316.76 250 316.6 351.26 316.76 401.89 316.85 452.52 317.1 401.89 317.34 351.26 317.43 250 317.6 148.74 317.43 98.11 317.34 47.48 317.1" style="fill:#ebebeb"></polygon><polygon points="47.48 351.68 98.11 351.44 148.74 351.35 250 351.18 351.26 351.35 401.89 351.44 452.52 351.68 401.89 351.93 351.26 352.01 250 352.18 148.74 352.01 98.11 351.92 47.48 351.68" style="fill:#ebebeb"></polygon><polygon points="47.48 144.18 98.11 143.93 148.74 143.84 250 143.68 351.26 143.84 401.89 143.93 452.52 144.18 401.89 144.42 351.26 144.51 250 144.67 148.74 144.51 98.11 144.42 47.48 144.18" style="fill:#ebebeb"></polygon><polygon points="47.48 178.76 98.11 178.52 148.74 178.43 250 178.26 351.26 178.43 401.89 178.51 452.52 178.76 401.89 179 351.26 179.09 250 179.26 148.74 179.09 98.11 179 47.48 178.76" style="fill:#ebebeb"></polygon><polygon points="47.48 213.34 98.11 213.1 148.74 213.01 250 212.84 351.26 213.01 401.89 213.1 452.52 213.34 401.89 213.59 351.26 213.68 250 213.84 148.74 213.68 98.11 213.59 47.48 213.34" style="fill:#ebebeb"></polygon><polygon points="47.48 386.26 98.11 386.02 148.74 385.93 250 385.77 351.26 385.93 401.89 386.02 452.52 386.26 401.89 386.51 351.26 386.6 250 386.76 148.74 386.6 98.11 386.51 47.48 386.26" style="fill:#ebebeb"></polygon><polygon points="284.58 116 284.83 162.12 284.92 208.25 285.08 300.51 284.92 354.77 284.83 390.9 284.58 416.03 284.34 390.9 284.25 354.77 284.08 300.51 284.25 208.25 284.34 162.12 284.58 116" style="fill:#ebebeb"></polygon><polygon points="250 116 250.24 162.12 250.33 208.25 250.5 300.51 250.33 354.77 250.25 390.9 250 416.03 249.75 390.9 249.67 354.77 249.5 300.51 249.67 208.25 249.76 162.12 250 116" style="fill:#ebebeb"></polygon><polygon points="215.42 116 215.66 162.12 215.75 208.25 215.91 300.51 215.75 354.77 215.66 390.9 215.42 416.03 215.17 390.9 215.08 354.77 214.92 300.51 215.08 208.25 215.17 162.12 215.42 116" style="fill:#ebebeb"></polygon><polygon points="180.83 116 181.07 162.12 181.16 208.25 181.33 300.51 181.16 354.77 181.08 390.9 180.83 416.03 180.59 390.9 180.5 354.77 180.33 300.51 180.5 208.25 180.59 162.12 180.83 116" style="fill:#ebebeb"></polygon><polygon points="388.34 116 388.58 162.12 388.67 208.25 388.84 300.51 388.67 354.77 388.58 390.9 388.34 416.03 388.09 390.9 388 354.77 387.84 300.51 388.01 208.25 388.09 162.12 388.34 116" style="fill:#ebebeb"></polygon><polygon points="353.75 116 354 162.12 354.08 208.25 354.25 300.51 354.08 354.77 354 390.9 353.75 416.03 353.51 390.9 353.42 354.77 353.25 300.51 353.42 208.25 353.51 162.12 353.75 116" style="fill:#ebebeb"></polygon><polygon points="319.17 116 319.41 162.12 319.5 208.25 319.67 300.51 319.5 354.77 319.41 390.9 319.17 416.03 318.92 390.9 318.84 354.77 318.67 300.51 318.84 208.25 318.93 162.12 319.17 116" style="fill:#ebebeb"></polygon><polygon points="422.92 116 423.16 162.12 423.25 208.25 423.42 300.51 423.25 354.77 423.17 390.9 422.92 416.03 422.68 390.9 422.59 354.77 422.42 300.51 422.59 208.25 422.68 162.12 422.92 116" style="fill:#ebebeb"></polygon><polygon points="388.34 116 388.58 162.12 388.67 208.25 388.84 300.51 388.67 354.77 388.58 390.9 388.34 416.03 388.09 390.9 388 354.77 387.84 300.51 388.01 208.25 388.09 162.12 388.34 116" style="fill:#ebebeb"></polygon><polygon points="146.25 116 146.49 162.12 146.58 208.25 146.75 300.51 146.58 354.77 146.49 390.9 146.25 416.03 146 390.9 145.91 354.77 145.75 300.51 145.92 208.25 146 162.12 146.25 116" style="fill:#ebebeb"></polygon><polygon points="111.66 116 111.91 162.12 111.99 208.25 112.16 300.51 112 354.77 111.91 390.9 111.66 416.03 111.42 390.9 111.33 354.77 111.16 300.51 111.33 208.25 111.42 162.12 111.66 116" style="fill:#ebebeb"></polygon><polygon points="77.08 116 77.32 162.12 77.41 208.25 77.58 300.51 77.41 354.77 77.32 390.9 77.08 416.03 76.83 390.9 76.75 354.77 76.58 300.51 76.75 208.25 76.83 162.12 77.08 116" style="fill:#ebebeb"></polygon><rect x="324.05" y="54.02" width="105.16" height="75.91" style="fill:#ebebeb"></rect><rect x="333.97" y="63.95" width="85.31" height="56.06" style="fill:#fff"></rect><rect x="333.97" y="63.95" width="85.31" height="56.06" style="fill:#fff"></rect><rect x="333.97" y="63.94" width="85.31" height="56.06" style="fill:#fff"></rect><g style="opacity:0.2"><polygon points="382.98 63.94 333.97 112.95 333.97 95.34 365.37 63.94 382.98 63.94" style="fill:#ebebeb"></polygon><polygon points="419.28 84.26 419.28 90.06 389.33 120.01 383.52 120.01 419.28 84.26" style="fill:#ebebeb"></polygon><polygon points="351.82 63.94 333.97 81.79 333.97 79.85 349.88 63.94 351.82 63.94" style="fill:#ebebeb"></polygon><polygon points="419.28 102.49 419.28 104.43 403.7 120.01 401.76 120.01 419.28 102.49" style="fill:#ebebeb"></polygon><polygon points="418.8 63.94 362.74 120.01 360.8 120.01 416.87 63.94 418.8 63.94" style="fill:#ebebeb"></polygon></g><rect x="197.42" y="54.02" width="105.16" height="75.91" style="fill:#ebebeb"></rect><rect x="207.35" y="63.95" width="85.31" height="56.06" style="fill:#fff"></rect><rect x="207.35" y="63.94" width="85.31" height="56.06" style="fill:#fff"></rect><g style="opacity:0.2"><polygon points="292.66 71.14 292.66 88.75 261.4 120.01 243.79 120.01 292.66 71.14" style="fill:#ebebeb"></polygon><polygon points="247.22 63.94 207.35 103.83 207.35 98.02 241.43 63.94 247.22 63.94" style="fill:#ebebeb"></polygon><polygon points="222.77 63.94 207.35 79.37 207.35 77.44 220.84 63.94 222.77 63.94" style="fill:#ebebeb"></polygon><polygon points="292.66 100.07 292.66 102.01 274.66 120.01 272.72 120.01 292.66 100.07" style="fill:#ebebeb"></polygon><polygon points="259.38 63.94 207.35 115.97 207.35 114.03 257.44 63.94 259.38 63.94" style="fill:#ebebeb"></polygon></g><rect x="70.8" y="54.02" width="105.16" height="75.91" style="fill:#ebebeb"></rect><rect x="80.72" y="63.95" width="85.31" height="56.06" style="fill:#fff"></rect><g style="opacity:0.2"><polygon points="142.35 63.94 86.29 120.01 80.72 120.01 80.72 107.96 124.74 63.94 142.35 63.94" style="fill:#ebebeb"></polygon><polygon points="166.03 89.92 166.03 107.55 153.57 120.01 135.95 120.01 166.03 89.92" style="fill:#ebebeb"></polygon><polygon points="91.72 63.94 80.72 74.94 80.72 69.15 85.93 63.94 91.72 63.94" style="fill:#ebebeb"></polygon><polygon points="166.03 70 166.03 71.94 117.96 120.01 116.02 120.01 166.03 70" style="fill:#ebebeb"></polygon><polygon points="118.89 63.94 80.72 102.11 80.72 100.17 116.95 63.94 118.89 63.94" style="fill:#ebebeb"></polygon></g></g><g id="freepik--Shadow--inject-11"><ellipse cx="303.5" cy="438.06" rx="108.36" ry="13.26" style="fill:#ebebeb"></ellipse></g><g id="freepik--Plant--inject-11"><path d="M402.27,326c15,14.69,17.52,37.42,14.36,57.33-.08.46-.78.33-.78-.09,0-4.53.14-9,.12-13.5l-.23-.61c-3.92-2.85-7.52-6.06-9.75-10.47-2.51-4.93-3.49-10.49-5.41-15.64-.18-.5.35-.35.69-.1,9.13,6.74,12,14,14.66,23.67a79.55,79.55,0,0,0-1.59-15.08c-2-9.19-5.87-18.3-12.47-25.12A.28.28,0,0,1,402.27,326Z" style="fill:#263238"></path><path d="M399.44,327.73c-2.58.09-4.2,4.21-6.21,5.42a1.94,1.94,0,0,1-2.85-.45c-2-2.78.74-6.22,3.32-8.14-1.84.76-3.37,2.09-5.35,2.46a1.86,1.86,0,0,1-2.42-1.44c-.87-3.8,3.89-5.48,7.15-5.56-1.58-1.1-6.12-4.1-3.71-5.57s7.77,2.8,9.51,4.21c2.55,2.07,5.59,5.17,5.71,8.41C404.74,330.85,401.43,328.52,399.44,327.73Z" style="fill:#000000"></path><path d="M399.44,327.73c-2.58.09-4.2,4.21-6.21,5.42a1.94,1.94,0,0,1-2.85-.45c-2-2.78.74-6.22,3.32-8.14-1.84.76-3.37,2.09-5.35,2.46a1.86,1.86,0,0,1-2.42-1.44c-.87-3.8,3.89-5.48,7.15-5.56-1.58-1.1-6.12-4.1-3.71-5.57s7.77,2.8,9.51,4.21c2.55,2.07,5.59,5.17,5.71,8.41C404.74,330.85,401.43,328.52,399.44,327.73Z" style="opacity:0.1"></path><path d="M400.19,328.37c-3.3-1.51-9.64.65-10.18-.59-1.09-2.55,4-4.29,6.71-4.63-2.52-.68-7.35-1.77-7.2-4.2.18-3,7.41-.42,11.06,2.39,4.61,3.53,4.58,6.94,3.82,7.62C403.35,329.9,400.74,328.61,400.19,328.37Z" style="fill:#000000"></path><path d="M436.45,324.56c-15.56,14.11-18.94,36.73-16.54,56.75.07.46.77.36.78-.06.18-4.53.21-9,.4-13.5.09-.2.16-.39.25-.6,4-2.69,7.74-5.77,10.14-10.09,2.69-4.83,3.89-10.35,6-15.42.2-.49-.33-.37-.68-.13-9.38,6.39-12.57,13.52-15.55,23.09a80.26,80.26,0,0,1,2.16-15c2.32-9.11,6.56-18.06,13.42-24.63C437.08,324.72,436.72,324.31,436.45,324.56Z" style="fill:#263238"></path><path d="M439.2,326.38c2.58.19,4,4.37,6,5.65a1.94,1.94,0,0,0,2.87-.34c2.1-2.7-.51-6.24-3-8.26,1.8.83,3.28,2.22,5.25,2.67a1.87,1.87,0,0,0,2.47-1.35c1-3.76-3.68-5.63-6.94-5.83,1.63-1,6.27-3.86,3.92-5.42s-7.87,2.5-9.66,3.84c-2.63,2-5.78,5-6,8.18C433.79,329.3,437.18,327.1,439.2,326.38Z" style="fill:#000000"></path><path d="M439.2,326.38c2.58.19,4,4.37,6,5.65a1.94,1.94,0,0,0,2.87-.34c2.1-2.7-.51-6.24-3-8.26,1.8.83,3.28,2.22,5.25,2.67a1.87,1.87,0,0,0,2.47-1.35c1-3.76-3.68-5.63-6.94-5.83,1.63-1,6.27-3.86,3.92-5.42s-7.87,2.5-9.66,3.84c-2.63,2-5.78,5-6,8.18C433.79,329.3,437.18,327.1,439.2,326.38Z" style="opacity:0.1"></path><path d="M438.43,327c3.36-1.38,9.61,1,10.2-.2,1.19-2.5-3.81-4.44-6.53-4.88,2.54-.59,7.41-1.49,7.35-3.92-.07-3-7.38-.7-11.14,2-4.74,3.35-4.84,6.76-4.1,7.47C435.21,328.4,437.88,327.22,438.43,327Z" style="fill:#000000"></path><path d="M420.54,361.83a153,153,0,0,1-4.83,22.32.56.56,0,0,1-1.09-.22c1-6.88,2.89-13.63,3.91-20.5a103,103,0,0,0,1.19-21.05c-.65-11.59-3.8-23.92-11.36-33-.17-.22.19-.52.36-.32,15.13,17.65,12.73,39.29,12.71,41.23,2.15-7.31,4.35-15.68,12.46-23.13.35-.32.62-.16.56.38-1.44,13.55-5.21,20.63-13.07,27.88C421.16,357.58,420.88,359.72,420.54,361.83Z" style="fill:#263238"></path><path d="M408.22,311.43c-2.72-1.21-6.48,2.26-9.17,2.49a2.23,2.23,0,0,1-2.73-1.9c-.67-3.89,3.9-6.07,7.53-6.77-2.29-.14-4.54.47-6.79-.14a2.16,2.16,0,0,1-1.78-2.72c1-4.37,6.8-3.73,10.22-2.17-1.08-1.94-4.29-7.32-1.05-7.64s6.65,6.82,7.75,9.15c1.6,3.44,3.2,8.18,1.69,11.6C412.14,317.33,409.89,313.25,408.22,311.43Z" style="fill:#000000"></path><path d="M408.22,311.43c-2.72-1.21-6.48,2.26-9.17,2.49a2.23,2.23,0,0,1-2.73-1.9c-.67-3.89,3.9-6.07,7.53-6.77-2.29-.14-4.54.47-6.79-.14a2.16,2.16,0,0,1-1.78-2.72c1-4.37,6.8-3.73,10.22-2.17-1.08-1.94-4.29-7.32-1.05-7.64s6.65,6.82,7.75,9.15c1.6,3.44,3.2,8.18,1.69,11.6C412.14,317.33,409.89,313.25,408.22,311.43Z" style="opacity:0.1"></path><path d="M408.68,312.46c-2.67-3.21-10.34-4.17-10.27-5.73.15-3.19,6.28-2.45,9.29-1.43-2.27-2-6.73-5.53-5.35-8,1.68-3,7.89,3.3,10.27,8.05,3,6,1.25,9.5.12,9.83C411.18,315.64,409.12,313,408.68,312.46Z" style="fill:#000000"></path><path d="M430.5,365.91l6.67,51H396.55c.83-4.52,8.4-51.07,8.4-51.07Z" style="fill:#000000"></path></g><g id="freepik--Shelf--inject-11"><rect x="62.58" y="224.23" width="148.65" height="6.76" style="fill:#000000"></rect><polygon points="88.23 231 88.23 267.95 78.77 267.95 76.14 239.78 75.32 231 88.23 231" style="fill:#000000"></polygon><polygon points="75.32 231 88.23 231 88.23 239.78 76.14 239.78 75.32 231" style="opacity:0.1"></polygon><polygon points="198.49 231 197.67 239.78 195.04 267.95 185.59 267.95 185.59 231 198.49 231" style="fill:#000000"></polygon><polygon points="198.49 231 197.67 239.78 185.59 239.78 185.59 231 198.49 231" style="opacity:0.1"></polygon><rect x="159.07" y="179.4" width="1" height="43.72" transform="translate(-36.02 34.79) rotate(-11.19)" style="fill:#000000"></rect><rect x="139.38" y="201.2" width="45.59" height="1" transform="translate(-70.69 314.64) rotate(-77.07)" style="fill:#000000"></rect><rect x="142.78" y="201.65" width="45.53" height="1" transform="translate(-76.23 301.22) rotate(-72.97)" style="fill:#000000"></rect><rect x="162.23" y="180.29" width="1" height="43.43" transform="translate(-53.29 58.4) rotate(-17.53)" style="fill:#000000"></rect><rect x="163.19" y="179.18" width="1" height="43.99" transform="matrix(1, -0.02, 0.02, 1, -4.55, 3.79)" style="fill:#000000"></rect><polygon points="170.69 224.27 155.33 224.27 158.38 205.02 167.65 205.02 170.69 224.27" style="fill:#c7c7c7"></polygon><rect x="84.9" y="183.43" width="27.64" height="40.84" style="fill:#dbdbdb"></rect><rect x="93.08" y="175.18" width="11.27" height="8.25" style="fill:#263238"></rect><rect x="88.75" y="193.79" width="19.85" height="18.99" style="fill:#455a64"></rect><rect x="114.56" y="178.11" width="23.69" height="46.16" style="fill:#455a64"></rect><rect x="121.58" y="171.03" width="9.66" height="7.08" style="fill:#000000"></rect><rect x="114.56" y="195.71" width="23.69" height="16.28" style="fill:#c7c7c7"></rect></g><g id="freepik--Character--inject-11"><path d="M316.65,416h-86c-3.06-12-5.92-23.27-8.43-33.09-.16-.6-.32-1.2-.45-1.82l-1-3.84c-3-11.6-5.3-20.78-6.71-26.38-.66-2.56-1.13-4.37-1.36-5.32-.06-.22-.11-.38-.13-.5l-.08-.3h83.7s.13.43.35,1.25l0,0c1.13,3.92,4.79,16.58,9.87,34.28C309.43,390.74,312.9,402.89,316.65,416Z" style="fill:#f7a9a0"></path><path d="M293.5,344.74v0c0,.05,0,.15,0,.3-1.06,18.1-8.95,54.76-12.61,70.95h-107c.11-1.48.18-2.31.18-2.31-14-38.33,5.37-68.94,5.37-68.94h32.26Z" style="fill:#f7a9a0"></path><path d="M234.89,101.21c-6.37.21-27.83,5.06-43.2,11.94-7.46,3.34-27.85,15.2-25.73,21.12s8.4,3,8.4,3-7.87,6.29-5.19,12.06,12.28.87,12.28.87-7.6,7.06-4.52,12.61,11.91-1,11.91-1-7.25,6.12-2.78,9.63c5.37,4.22,17.47-8.58,25.9-11.86,1.92-.75,39.87-12.32,39.87-12.32Z" style="fill:#f7a9a0"></path><path d="M189,161.82c8.92-9.4,14.45-12,26.82-15.1.24-.06.2-.43-.06-.39-12.38,2-19.78,4.19-27.24,15.08C188.19,162,188.61,162.27,189,161.82Z" style="fill:#263238"></path><path d="M181,150.44c10.12-8.95,16.09-11.79,28.8-16,.18-.06.1-.37-.09-.32-12.81,3.11-20.14,5.49-29.08,15.77C180.2,150.32,180.51,150.85,181,150.44Z" style="fill:#263238"></path><path d="M175.23,136.55c10.42-8,16.83-11.35,29.7-13.88a.24.24,0,0,0-.07-.48c-13.37,1.3-21.4,5.48-29.84,14C174.44,136.79,174.57,137.05,175.23,136.55Z" style="fill:#263238"></path><path d="M261.06,147.75s-12,10.94-18.33,14.58-34.93,8.52-36.33,2.4c-1.82-7.89,14.13-14,22.33-15.91,0,0-4.21-18.26,6.3-25.1S261.06,147.75,261.06,147.75Z" style="fill:#f7a9a0"></path><path d="M206.61,162.4c3.54-8.4,14.47-10.26,22.29-12.75a.75.75,0,0,0,.41-1.16c-1.25-7.77-.76-19.1,5.22-24.87a.19.19,0,0,0-.24-.3c-7.25,5.32-8.64,16.41-6.72,24.84-8.06,2.43-18.94,4.78-21,14.21C206.52,162.42,206.59,162.45,206.61,162.4Z" style="fill:#263238"></path><path d="M276.16,234.94c14.83-11,77.27-93.16,62.54-122.67S259.13,93,223.21,104c-6.94,2.13,18.55,48.68,31.36,47.71,12.6-.95,30.54-4.72,30.54-4.72-.33,2.07-18.89,39.83-29.25,71.66C249.84,237.15,264.73,243.4,276.16,234.94Z" style="fill:#f7a9a0"></path><path d="M285.11,147l4.94-.75c1.64-.27,3.29-.52,4.91-.84s3.26-.64,4.86-1a40.38,40.38,0,0,0,4.76-1.5,21.31,21.31,0,0,1-4.6,2.05,38.72,38.72,0,0,1-4.88,1.23,49.21,49.21,0,0,1-5,.67A41.88,41.88,0,0,1,285.11,147Z" style="fill:#263238"></path><path d="M296.21,344.77l-7.67-36.9s12.41-22.74,5-38.82c-3.75-8.14-25.64-41.86-39.52-51.93-13-9.45-26.09-2.3-33.13,5.11-27.11,28.52-33,68.94-41.38,122.54Z" style="fill:#f7a9a0"></path><path d="M197.5,256c1.26-1.57,33.36,1.57,33.36,1.57,3.25-.67,9.39,0,9.41.9,0,0,18.63,1.59,23.41,1.34,14.14-.73,22.38-4.5,24.1-3.81,2.88,1.17,9.65,15.59,10,22.7.67,15.9-9.19,29.18-9.19,29.18L316.9,416.92H167.17s-5.2-43.27,12.3-72.15C179.47,344.77,189.06,266.53,197.5,256Z" style="fill:#000000"></path><g style="opacity:0.2"><path d="M240.25,258.69a2.3,2.3,0,0,0-.63,1.05c-.14.39-.25.79-.35,1.19-.2.8-.36,1.62-.51,2.43-.29,1.63-.53,3.28-.74,4.92-.42,3.29-.76,6.59-1.07,9.89-.64,6.61-1.16,13.22-1.63,19.84-.91,13.24-1.78,26.49-2.25,39.74,0,1.65-.11,3.31-.12,5s-.08,3.35-.19,5c-.24,3.32-.56,6.63-.89,9.93-.67,6.61-1.35,13.21-2.09,19.81s-1.44,13.19-2.08,19.8c-.33,3.3-.64,6.6-.88,9.91-.12,1.65-.22,3.31-.27,5,0,.82,0,1.65,0,2.48,0,.41,0,.83.1,1.24a3.29,3.29,0,0,0,.12.61c.06.18.13.43.35.46-.23,0-.3-.28-.37-.46a4.13,4.13,0,0,1-.13-.61c-.07-.41-.1-.82-.13-1.24,0-.83,0-1.66,0-2.49,0-1.66.07-3.32.15-5,.16-3.31.39-6.63.64-9.94.53-6.62,1.16-13.22,1.79-19.83l2-19.82c.31-3.3.61-6.6.84-9.9.1-1.66.21-3.29.17-4.94s0-3.33.09-5q.84-19.9,2.49-39.76c.56-6.62,1.17-13.23,1.91-19.83.39-3.3.81-6.59,1.31-9.87.25-1.65.53-3.28.86-4.91.17-.82.35-1.63.57-2.43.11-.4.24-.79.39-1.18A2.17,2.17,0,0,1,240.25,258.69Z"></path><path d="M230.86,257.56a2.17,2.17,0,0,0-.63,1.06,11.85,11.85,0,0,0-.35,1.2c-.21.81-.37,1.63-.51,2.45-.29,1.64-.53,3.3-.74,5-.42,3.32-.75,6.64-1.06,10-.64,6.65-1.16,13.31-1.62,20-.92,13.33-1.78,26.67-2.26,40-.05,1.66-.11,3.33-.13,5s0,3.39-.16,5c-.23,3.35-.56,6.67-.88,10-.67,6.66-1.36,13.3-2.11,19.95s-1.45,13.28-2.09,19.94c-.33,3.32-.64,6.65-.89,10-.12,1.66-.22,3.33-.27,5,0,.83,0,1.67,0,2.5,0,.42,0,.84.09,1.25a4.11,4.11,0,0,0,.12.61c.06.19.13.44.35.47-.22,0-.3-.28-.36-.46a3.36,3.36,0,0,1-.14-.61c-.06-.42-.1-.84-.12-1.25-.05-.84-.06-1.68-.06-2.51,0-1.67.08-3.35.16-5,.16-3.34.39-6.67.64-10,.54-6.66,1.18-13.32,1.81-20l2-20c.31-3.32.62-6.65.83-10,.12-1.68.18-3.29.14-5s0-3.36.12-5q.84-20.06,2.49-40c.56-6.66,1.16-13.33,1.9-20,.39-3.32.8-6.64,1.3-9.95.25-1.65.53-3.3.86-4.94.16-.82.35-1.64.57-2.45.11-.4.23-.8.38-1.19A2.22,2.22,0,0,1,230.86,257.56Z"></path></g><path d="M270.48,303A113.18,113.18,0,0,0,254,305.86c-2.67.71-5.3,1.54-7.92,2.43-1.31.45-2.62.84-3.94,1.24a17.59,17.59,0,0,1-4.24.83.1.1,0,0,0,0,.2,29.27,29.27,0,0,0,4.08-.11,28.77,28.77,0,0,0,3.89-.77c2.72-.69,5.41-1.52,8.13-2.24,5.47-1.46,11-2.91,16.51-4C270.81,303.42,270.74,303,270.48,303Z" style="fill:#263238"></path><path d="M284.24,307.8a124.22,124.22,0,0,0-13.77-.54c-2.3.05-4.58.23-6.87.47-1.09.12-2.18.25-3.27.4s-2.37.49-3.57.63c-.12,0-.12.21,0,.2,1.13-.1,2.29,0,3.43,0l3.43-.13c2.29-.07,4.58-.12,6.87-.22,4.59-.19,9.16-.34,13.74-.38C284.49,308.18,284.47,307.83,284.24,307.8Z" style="fill:#263238"></path><path d="M270,240.18a24.31,24.31,0,0,1-1.64-6.81,27.83,27.83,0,0,1,.18-7.06,22.37,22.37,0,0,1,2.14-6.77l.84-1.56,1-1.45c.17-.24.34-.48.52-.71l.61-.64c.4-.43.81-.85,1.22-1.25-.29.51-.59,1-.89,1.5l-.46.72c-.13.26-.25.52-.38.77l-.78,1.52-.63,1.58a30,30,0,0,0-1.73,6.52A48.31,48.31,0,0,0,270,240.18Z" style="fill:#263238"></path><path d="M275.27,218a1.52,1.52,0,0,1,.77-.64,2.22,2.22,0,0,1,.5-.1,1.4,1.4,0,0,1,.5,0A8,8,0,0,0,275.27,218Z" style="fill:#263238"></path><path d="M273.37,219.79a1.47,1.47,0,0,1,.94-.36,2.07,2.07,0,0,1,.5.06,1.46,1.46,0,0,1,.46.2A8.06,8.06,0,0,0,273.37,219.79Z" style="fill:#263238"></path><path d="M277.81,220.22a1.47,1.47,0,0,1,.94-.36,2.07,2.07,0,0,1,.5.06,1.39,1.39,0,0,1,.47.2A7.61,7.61,0,0,0,277.81,220.22Z" style="fill:#263238"></path><path d="M271.32,226.31a1.47,1.47,0,0,1,.94-.36,2.07,2.07,0,0,1,.5.06,1.26,1.26,0,0,1,.46.2A8.06,8.06,0,0,0,271.32,226.31Z" style="fill:#263238"></path><path d="M273.74,222a1.54,1.54,0,0,1,1,.14,2.13,2.13,0,0,1,.42.3,1.5,1.5,0,0,1,.3.4A8,8,0,0,0,273.74,222Z" style="fill:#263238"></path><path d="M274.32,224.88a1.48,1.48,0,0,1,.95-.33,2.08,2.08,0,0,1,.5.07,1.35,1.35,0,0,1,.45.22A7.55,7.55,0,0,0,274.32,224.88Z" style="fill:#263238"></path><path d="M271.42,222.9a1.49,1.49,0,0,1,1,.15,1.69,1.69,0,0,1,.41.29,1.35,1.35,0,0,1,.31.4A8,8,0,0,0,271.42,222.9Z" style="fill:#263238"></path><path d="M277,222.07a1.42,1.42,0,0,1,1,.14,2,2,0,0,1,.41.29,1.66,1.66,0,0,1,.31.4A7.94,7.94,0,0,0,277,222.07Z" style="fill:#263238"></path><path d="M231.63,235.39c1.67,12.53-13.06,79.34-12.15,83.85,0,0-26.86,48.9-44.28,24.32-12.39-17.51,10.79-73.23,32.25-105.2C221.8,217,229.6,220.12,231.63,235.39Z" style="fill:#f7a9a0"></path><path d="M229.76,257.56a29.27,29.27,0,0,1,.53-4.88,28.23,28.23,0,0,1,1.27-4.75,27.3,27.3,0,0,1-.53,4.88A28.23,28.23,0,0,1,229.76,257.56Z" style="fill:#263238"></path><path d="M233.05,249.38a5.38,5.38,0,0,1-.17,1.26,6,6,0,0,1-.44,1.2,4.22,4.22,0,0,1-.72,1.06,2.15,2.15,0,0,1-1.06.72,4.6,4.6,0,0,0,.76-1,9.84,9.84,0,0,0,.58-1.06C232.37,250.9,232.66,250.14,233.05,249.38Z" style="fill:#263238"></path><path d="M275.16,221.44c-.48,3.39-.63,8-1.73,9.9s-4.46,6.71-1,9.15c2.95,2.06,6.95-1.67,6.55-6.23s-2.56-8.33-1.83-11.08S275.16,221.44,275.16,221.44Z" style="fill:#000000"></path><path d="M293.19,293.43h0a6.13,6.13,0,0,1-7.07-5.05L275.24,223a6.15,6.15,0,0,1,5.05-7.07h0a6.14,6.14,0,0,1,7.07,5.05l10.88,65.34A6.15,6.15,0,0,1,293.19,293.43Z" style="fill:#c7c7c7"></path><path d="M286.41,218.61a2.61,2.61,0,0,1-3.2,1.4c-1.8-.34-1,4-2.49,4.66s-2.28-2.74-3.29-2.48.92,9.87-.47,11.16L275.24,223a6.15,6.15,0,0,1,5.05-7.07,6.26,6.26,0,0,1,2.16,0A6.19,6.19,0,0,1,286.41,218.61Z" style="fill:#000000"></path><path d="M238.32,280.69c6.91-1.74,49.63,27.75,41.62,34.54-37.65,31.9-79.81,39-89.55,38.39-12.77-.78-20-15-18.32-23.23C174.49,318.5,231.47,282.41,238.32,280.69Z" style="fill:#f7a9a0"></path><path d="M300.21,236.07c3.35,5.24-10.26,12.4-10.26,12.4a11.47,11.47,0,0,1,7.28,2.79c3.43,3.25-.17,10.05-.17,10.05a14.12,14.12,0,0,1,7.22,4.16c3,3.45.31,10.82.31,10.82a13,13,0,0,1,4,7.66c1.43,13.16-27.51,31.61-36.86,35.13l-37.23-34.43s14.33-31,25.8-39C266.7,241.28,295.09,228.07,300.21,236.07Z" style="fill:#f7a9a0"></path><path d="M289.75,248.39c-8.13,2.35-15.68,6.63-22.92,10.85-.16.09,0,.33.15.25,7.44-3.77,15.62-6.74,22.93-10.73A.2.2,0,0,0,289.75,248.39Z" style="fill:#263238"></path><path d="M296.81,261.15a22,22,0,0,0-5,2.81c-1.71,1.11-3.4,2.26-5.08,3.43q-5,3.51-9.88,7.28c-.14.11,0,.36.15.25,3.35-2.33,6.73-4.61,10.17-6.8,1.72-1.09,3.45-2.18,5.19-3.24a26.77,26.77,0,0,0,4.77-3.25A.29.29,0,0,0,296.81,261.15Z" style="fill:#263238"></path><path d="M304.45,276.39c-1.61.44-3.08,1.8-4.4,2.77q-2.26,1.65-4.54,3.27c-3,2.17-6.07,4.33-9.17,6.39-.16.1,0,.35.14.25,3.17-2.08,6.37-4.11,9.52-6.21q2.33-1.56,4.62-3.13c1.31-.89,3-1.86,3.94-3.2A.1.1,0,0,0,304.45,276.39Z" style="fill:#263238"></path><path d="M294.12,233.56a17.56,17.56,0,0,0-4.95.42c-1.63.35-3.24.76-4.83,1.26-3.18,1-6.28,2.2-9.34,3.49a96.09,96.09,0,0,0-9,4.33c-1.45.8-2.89,1.63-4.28,2.52-.71.43-1.37.92-2.05,1.38s-1.26,1-1.89,1.52a48,48,0,0,0-6.39,7.5c-1.92,2.69-3.67,5.52-5.39,8.36s-3.3,5.77-4.86,8.71-3.1,5.89-4.54,8.88l-.1.22-.21.11c-4.38,2.3-8.71,4.74-13,7.23s-8.53,5.05-12.73,7.69-8.3,5.43-12.37,8.26-8,5.89-11.81,9.08c3.63-3.41,7.49-6.55,11.43-9.59s8.06-5.84,12.19-8.61,8.35-5.42,12.63-7.95,8.59-5,13-7.37l-.31.32q2.15-4.54,4.5-9c1.59-2.94,3.24-5.86,5-8.73s3.55-5.69,5.52-8.42a49.65,49.65,0,0,1,6.64-7.66c.68-.52,1.33-1.11,2-1.57s1.4-.94,2.13-1.36c1.44-.87,2.92-1.68,4.4-2.45A97.82,97.82,0,0,1,274.7,238a88.56,88.56,0,0,1,9.52-3.18C287.44,234,290.78,233.16,294.12,233.56Z" style="fill:#263238"></path><path d="M231.59,224.72c.66,2.19,10.51,20.22,25.27,16.9,7-1.59-.86-20.51-.86-20.51l3.24-20.35-26.17-14.42S231.33,223.78,231.59,224.72Z" style="fill:#f7a9a0"></path><path d="M232.47,199.49A39.31,39.31,0,0,0,256.18,220l3.06-19.21-26.17-14.43S232.8,192.28,232.47,199.49Z" style="fill:#263238"></path><path d="M283.17,170.68c2.68,33.64-17.16,39-24.42,39.62-6.58.51-29.07,1.44-35.22-31.74s8.65-45.07,23.65-47.05S280.49,137,283.17,170.68Z" style="fill:#f7a9a0"></path><path d="M224.06,176.19c8,.13,8.06-12.55,8.06-12.55s9.13-.77,9.9-15.49c0,0,4.33,8.92,16.68,10.81,2.61.4-6.11-6.44-6.11-6.44s10.45,9.59,30,6.1c1.38-.24-1.42-20.84-16.68-28s-29.08-3.23-38.62,6.36a18.57,18.57,0,0,0-9.92,14.41C216,162.05,220.94,176.14,224.06,176.19Z" style="fill:#263238"></path><path d="M228.71,136.59c-6.7,5.15-27.11,2.42-34.77-8.31-10.54-14.78,8.32-39.41,26.76-30.64S233.88,132.62,228.71,136.59Z" style="fill:#263238"></path><path d="M198.17,102.27c-4,4.55-7.15,9.84-8.4,15.46a13.58,13.58,0,0,0,5.56,14.57,32.68,32.68,0,0,0,7.61,4.1,38.21,38.21,0,0,0,8.4,2.39,29.91,29.91,0,0,0,17.37-2.2,25.91,25.91,0,0,1-17.65,4.49,35.38,35.38,0,0,1-9.13-2.08,33.63,33.63,0,0,1-8.37-4.37,16.89,16.89,0,0,1-5.9-7.77,16,16,0,0,1-.1-9.67A30.32,30.32,0,0,1,198.17,102.27Z" style="fill:#263238"></path><path d="M229.52,180.49s-7.29-10.58-12.09-8,.64,17.9,6.23,20a5.71,5.71,0,0,0,7.67-3Z" style="fill:#f7a9a0"></path><path d="M219.1,176.85a.08.08,0,0,0,0,.15c3.92,1.62,6,5.29,7.39,9.08-1.16-1.47-2.75-2.27-4.71-.9-.1.08,0,.24.11.22a3.49,3.49,0,0,1,3.85,1.25,16.41,16.41,0,0,1,1.83,3.14c.18.35.82.16.69-.24l0-.09C228.33,184.44,224.48,177.39,219.1,176.85Z" style="fill:#263238"></path><circle cx="225.72" cy="190.8" r="1.65" style="fill:#fff"></circle><path d="M277.05,169a22.89,22.89,0,0,1-2.33.2,3.72,3.72,0,0,1-2.4-.24,1.2,1.2,0,0,1-.43-1.4A3,3,0,0,1,274.5,166a4.35,4.35,0,0,1,3.08.68A1.28,1.28,0,0,1,277.05,169Z" style="fill:#263238"></path><path d="M254.88,171.47a20.12,20.12,0,0,0,2.33,0,3.75,3.75,0,0,0,2.38-.44,1.2,1.2,0,0,0,.31-1.43,3,3,0,0,0-2.72-1.3,4.35,4.35,0,0,0-3,.93A1.28,1.28,0,0,0,254.88,171.47Z" style="fill:#263238"></path><path d="M259.24,177.65c0-.09-.18.11-.17.21.16,2.29-.05,4.94-2.1,5.78-.06,0-.05.14,0,.13C259.52,183.32,259.76,179.79,259.24,177.65Z" style="fill:#263238"></path><path d="M257.1,175.32c-3.7-.14-3.72,7.28-.29,7.41S260.2,175.44,257.1,175.32Z" style="fill:#263238"></path><path d="M255.64,175.71c-.65.42-1.28,1.16-2.06,1.24s-1.59-.7-2.18-1.44c-.06-.08-.12,0-.13.08,0,1.42.52,2.88,2,3.1s2.39-1.06,2.75-2.49C256.13,175.93,255.9,175.54,255.64,175.71Z" style="fill:#263238"></path><path d="M272.36,176.54c0-.09.18.11.18.2-.1,2.3.18,4.95,2.25,5.73.07,0,.06.14,0,.13C272.24,182.22,271.9,178.7,272.36,176.54Z" style="fill:#263238"></path><path d="M274.44,174.16c3.7-.24,3.91,7.17.49,7.4S271.34,174.36,274.44,174.16Z" style="fill:#263238"></path><path d="M276,174.6c.6.38,1.2,1.08,1.9,1.1s1.39-.79,1.89-1.57c0-.08.11,0,.11.07.08,1.42-.34,2.91-1.7,3.22s-2.18-.9-2.56-2.31C275.57,174.86,275.76,174.45,276,174.6Z" style="fill:#263238"></path><path d="M259.21,195.85c.53.56,1,1.33,1.87,1.44a6.09,6.09,0,0,0,2.49-.46.08.08,0,0,1,.1.12,3.13,3.13,0,0,1-3,1.11,2.44,2.44,0,0,1-1.7-2.12C259,195.81,259.14,195.76,259.21,195.85Z" style="fill:#263238"></path><path d="M268.74,187.45s.51,3.43.52,5.05c0,.15-5.58,1.44-8.64-1.42-.14-.13.13-.4.3-.34a15.28,15.28,0,0,0,7.13.94c.11-.45-1.07-5.84-.81-5.86a14.09,14.09,0,0,1,3.68.79c-.85-7.17-2.84-14.14-3.58-21.3a.23.23,0,0,1,.43-.11c2.6,7.17,3.76,15.4,4.83,22.78C272.74,188.9,269.39,187.72,268.74,187.45Z" style="fill:#263238"></path><path d="M258.75,210.3a28.41,28.41,0,0,0,8.09-2.31,26.07,26.07,0,0,0,7-4.53,25.68,25.68,0,0,0,2.83-3.07,27.51,27.51,0,0,0,2.25-3.51,29.47,29.47,0,0,0,2.64-7.91,68.18,68.18,0,0,0,1.15-16.76c-.13-2.81-.38-5.61-.78-8.4a76,76,0,0,0-1.52-8.32,79.15,79.15,0,0,1,2.89,16.69,64.62,64.62,0,0,1-1,16.94,29.79,29.79,0,0,1-2.77,8.07,25.71,25.71,0,0,1-2.34,3.59,24,24,0,0,1-3,3.09A27.38,27.38,0,0,1,258.75,210.3Z" style="fill:#263238"></path></g><g id="freepik--Table--inject-11"><polygon points="451.99 416.92 401.49 417.17 350.99 417.25 250 417.42 149.01 417.25 98.51 417.17 48.01 416.92 98.51 416.68 149.01 416.59 250 416.42 350.99 416.59 401.49 416.68 451.99 416.92" style="fill:#263238"></polygon></g><g id="freepik--Wax--inject-11"><path d="M375.64,431.68H328s-11.27-13.48-8-27.05c2.22-9.21,7.22-14,7.22-14h49.21s5,4.83,7.22,14C386.91,418.2,375.64,431.68,375.64,431.68Z" style="fill:#455a64"></path><ellipse cx="357.15" cy="410.75" rx="19.29" ry="7.65" style="fill:#37474f"></ellipse><path d="M384.07,407.06c-4.43-3.08-13.26-7-29.63-7.27,0,0,16.79-2.06,28.39,2q.45,1.35.81,2.85A20.63,20.63,0,0,1,384.07,407.06Z" style="fill:#37474f"></path><path d="M363.88,422.14s-27.64,4.23-42.86-3.21a30,30,0,0,1-1.53-7.14C322.8,414.09,336.35,422.14,363.88,422.14Z" style="fill:#37474f"></path><rect x="327.21" y="383.54" width="49.22" height="7.05" style="fill:#37474f"></rect><path d="M354.45,383.54a2.16,2.16,0,0,0,1,2.21c1.29.58,2.08.7,2.58,3.16s-1.2,13.75,1.79,13.75,0-11.47.46-13.75,1.74-3.45,3.65-3.21,2.83,1.38,4.53.5,2.82-2.66,3.89-2.66Z" style="fill:#000000"></path></g><g id="freepik--Strips--inject-11"><path d="M234,440.27c17.63-4.67,35.26,4.67,52.9,0-1.34-4.51-2.67-9.11-4-13.77-15,2.31-29.94-4-44.9-1.66Q236,432.45,234,440.27Z" style="fill:#fff"></path><path d="M234,440.27a45.83,45.83,0,0,1,13.2-1.42,130.93,130.93,0,0,1,13.27,1.27c4.4.57,8.8,1.14,13.23,1.28a45.37,45.37,0,0,0,13.14-1.34l-.15.27-4-13.76.26.17a52.64,52.64,0,0,1-11.29.36c-3.76-.24-7.49-.74-11.22-1.25s-7.44-1-11.19-1.24A53.28,53.28,0,0,0,238,425l.1-.09Zm0,0,3.88-15.46,0-.08H238a52.46,52.46,0,0,1,11.27-.42c3.76.22,7.49.71,11.22,1.19s7.45,1,11.19,1.19a53.06,53.06,0,0,0,11.2-.41l.21,0,.06.21,4,13.77.06.21-.22.06a45.56,45.56,0,0,1-13.26,1.29c-4.46-.16-8.87-.76-13.26-1.35s-8.8-1.18-13.23-1.36A45.08,45.08,0,0,0,234,440.27Z" style="fill:#c7c7c7"></path><path d="M301.94,445.21c-17,7-35.75-3.47-52.72,3.53q1.23-7.41,2.49-14.53c14.62-3.87,30.35,2.94,45-.93Q299.32,439.39,301.94,445.21Z" style="fill:#fff"></path><path d="M301.94,445.21a36.09,36.09,0,0,1-13,2.62,106.08,106.08,0,0,1-13.34-.71,111.83,111.83,0,0,0-13.3-.71,35.84,35.84,0,0,0-13,2.53l-.38.16.07-.4,2.48-14.54,0-.15.15,0a42,42,0,0,1,11.27-1.21c3.78.05,7.54.42,11.29.8s7.5.75,11.26.8a43.34,43.34,0,0,0,11.18-1.18l.08,0,0,.08Zm0,0-5.36-11.89.12.06a41.26,41.26,0,0,1-11.23,1.28c-3.78,0-7.54-.39-11.29-.74s-7.51-.71-11.26-.74a41.76,41.76,0,0,0-11.15,1.25l.18-.18-2.51,14.52-.3-.24a36.19,36.19,0,0,1,13.12-2.5,110,110,0,0,1,13.34.79,113.84,113.84,0,0,0,13.3.8A36.1,36.1,0,0,0,301.94,445.21Z" style="fill:#c7c7c7"></path><path d="M254.09,443.1c3,1.85,7.81.12,10.14,0s7.49,1.48,11.35,1.88,6.19.79,9.44.26,5.6-2.25,7.49-2.59,3.65-1.71,3.06-3.41-.83-2.57-5.07-2.73-5.07.17-10.14-.5-7.07-1.32-9.56-.53-3.16,1.46-5.15,1-7.12.37-8.22,1.16S251.51,441.5,254.09,443.1Z" style="fill:#000000"></path><path d="M281.32,438.82a1.44,1.44,0,0,1,.75-.69,1.76,1.76,0,0,1,.5-.13,1.53,1.53,0,0,1,.52,0A6,6,0,0,0,281.32,438.82Z" style="fill:#263238"></path><path d="M274.63,439.49a1.42,1.42,0,0,1,.93-.39,2.1,2.1,0,0,1,.51.06,1.5,1.5,0,0,1,.46.22A5.78,5.78,0,0,0,274.63,439.49Z" style="fill:#263238"></path><path d="M264.16,441.19a1.37,1.37,0,0,1,.93-.38,1.78,1.78,0,0,1,.51.06,1.59,1.59,0,0,1,.46.21A6,6,0,0,0,264.16,441.19Z" style="fill:#263238"></path><path d="M282.67,441.77a1.39,1.39,0,0,1,.93-.38,1.78,1.78,0,0,1,.51.06,1.59,1.59,0,0,1,.46.21A6,6,0,0,0,282.67,441.77Z" style="fill:#263238"></path><path d="M272.51,441.9a1.39,1.39,0,0,1,.93-.38,1.78,1.78,0,0,1,.51.06,1.59,1.59,0,0,1,.46.21A6,6,0,0,0,272.51,441.9Z" style="fill:#263238"></path><path d="M268.25,437.54a1.44,1.44,0,0,1,.93-.38,2.22,2.22,0,0,1,.51.06,1.39,1.39,0,0,1,.46.22A5.75,5.75,0,0,0,268.25,437.54Z" style="fill:#263238"></path><path d="M285.56,439a1.4,1.4,0,0,1,.93-.39,2.22,2.22,0,0,1,.51.06,1.39,1.39,0,0,1,.46.22A5.5,5.5,0,0,0,285.56,439Z" style="fill:#263238"></path><path d="M256.4,442.67a1.41,1.41,0,0,1,.93-.38,1.43,1.43,0,0,1,.51.06,1.48,1.48,0,0,1,.46.21A5.78,5.78,0,0,0,256.4,442.67Z" style="fill:#263238"></path><path d="M268.08,441.22a1.49,1.49,0,0,1,1,.18,2.2,2.2,0,0,1,.41.33,1.75,1.75,0,0,1,.29.42A6.47,6.47,0,0,0,268.08,441.22Z" style="fill:#263238"></path><path d="M259.56,441.64a1.59,1.59,0,0,1,.6-.84,2.08,2.08,0,0,1,.47-.24,1.53,1.53,0,0,1,.52-.08A6.76,6.76,0,0,0,259.56,441.64Z" style="fill:#263238"></path><path d="M285.56,443.2a1.55,1.55,0,0,1,.6-.84,1.74,1.74,0,0,1,.47-.24,1.53,1.53,0,0,1,.52-.08A6.76,6.76,0,0,0,285.56,443.2Z" style="fill:#263238"></path><path d="M274.19,437.87a1.55,1.55,0,0,1,.6-.84,1.74,1.74,0,0,1,.47-.24,1.58,1.58,0,0,1,.52-.09A6.53,6.53,0,0,0,274.19,437.87Z" style="fill:#263238"></path><path d="M291.42,439.53a1.52,1.52,0,0,1,.61-.84,1.74,1.74,0,0,1,.47-.24,1.47,1.47,0,0,1,.51-.08A6.69,6.69,0,0,0,291.42,439.53Z" style="fill:#263238"></path><path d="M256.5,438.89a1.5,1.5,0,0,1,1,.18,2.58,2.58,0,0,1,.41.33,1.75,1.75,0,0,1,.29.42A6.47,6.47,0,0,0,256.5,438.89Z" style="fill:#263238"></path><path d="M262,438a1.5,1.5,0,0,1,1,.18,3.22,3.22,0,0,1,.41.32,2,2,0,0,1,.29.43A6.47,6.47,0,0,0,262,438Z" style="fill:#263238"></path><path d="M277.69,442.54a1.39,1.39,0,0,1,1,.18,2.51,2.51,0,0,1,.41.32,1.62,1.62,0,0,1,.29.43A6.47,6.47,0,0,0,277.69,442.54Z" style="fill:#263238"></path><path d="M288.47,441.69a1.39,1.39,0,0,1,1,.18,2.51,2.51,0,0,1,.41.32,1.62,1.62,0,0,1,.29.43A6.47,6.47,0,0,0,288.47,441.69Z" style="fill:#263238"></path><path d="M322.2,442.48c-16.46-7.86-35.52-2-52-9.82q3.21-6.27,6.48-12.78c14.28,5,30.15,1.66,44.43,6.7C321.5,431.81,321.86,437.1,322.2,442.48Z" style="fill:#fff"></path><path d="M322.2,442.48a45.3,45.3,0,0,0-12.75-3.64c-4.38-.64-8.82-.89-13.25-1.12s-8.87-.46-13.28-1.13a45.89,45.89,0,0,1-12.8-3.73l-.2-.1.1-.2,6.47-12.79.09-.19.2.07a51.55,51.55,0,0,0,10.93,2.48c3.72.48,7.47.7,11.22.92s7.51.43,11.24.91a52.5,52.5,0,0,1,11,2.5l.08,0v.08Zm0,0L321,426.59l.08.1a53.28,53.28,0,0,0-11-2.43c-3.72-.46-7.47-.65-11.22-.85s-7.51-.39-11.26-.85a53,53,0,0,1-11-2.45l.3-.12-6.51,12.77-.1-.3A45.14,45.14,0,0,0,283,436.22c4.37.69,8.81.94,13.24,1.2a125.39,125.39,0,0,1,13.26,1.22A45.52,45.52,0,0,1,322.2,442.48Z" style="fill:#c7c7c7"></path></g><g id="freepik--Towel--inject-11"><path d="M176.56,423.41H73.74A17.78,17.78,0,0,1,56,405.63h0a17.79,17.79,0,0,1,17.79-17.79H176.56Z" style="fill:#dbdbdb"></path><path d="M191.35,406.55H87.16a1.63,1.63,0,0,1-1.63-1.64V389.48a1.63,1.63,0,0,1,1.63-1.64H191.35a9.35,9.35,0,0,1,9.35,9.35h0A9.35,9.35,0,0,1,191.35,406.55Z" style="fill:#dbdbdb"></path><path d="M191.35,423.42H87.16a1.63,1.63,0,0,1-1.63-1.63V406.35a1.63,1.63,0,0,1,1.63-1.63H191.35a9.34,9.34,0,0,1,9.35,9.35h0A9.35,9.35,0,0,1,191.35,423.42Z" style="fill:#dbdbdb"></path><path d="M60.9,415.2a.51.51,0,0,0-.68-.16,6.69,6.69,0,0,0-2.64,2.25.49.49,0,0,0,.19.67.51.51,0,0,0,.67-.19l0,0,0-.05.13-.15a3.88,3.88,0,0,1,.26-.31,7.27,7.27,0,0,1,.57-.54s.09-.07,0,0l.06-.05a.83.83,0,0,1,.16-.12l.33-.23a6.94,6.94,0,0,1,.71-.38A.51.51,0,0,0,60.9,415.2Z" style="fill:#dbdbdb"></path><path d="M62.33,417.13a.5.5,0,0,0-.68.19l-.06.1,0,0-.17.17,0,0h0l-.1.07-.22.13-.05,0,0,0h0l-.07,0-.28.1-.57.15a.5.5,0,1,0,.28.95,3.2,3.2,0,0,0,2.19-1.31A.5.5,0,0,0,62.33,417.13Z" style="fill:#dbdbdb"></path><path d="M82.78,388.87s-.09-.16,0-.05a.43.43,0,0,1-.05-.12,2,2,0,0,1-.08-.26,1,1,0,0,1-.06-.25h0a.76.76,0,0,1,0-.15,2.09,2.09,0,0,1,0-.25.76.76,0,0,1,0-.15v0a.73.73,0,0,1,0-.25,2.86,2.86,0,0,1,.07-.28.49.49,0,0,0-.36-.6.51.51,0,0,0-.6.36,3.37,3.37,0,0,0,.23,2.55.48.48,0,0,0,.68.16A.5.5,0,0,0,82.78,388.87Z" style="fill:#dbdbdb"></path><path d="M125.27,386.82a.5.5,0,0,0-1,0q.06.72.06,1.44l0,.7,0,.35a1.36,1.36,0,0,1,0,.2h0s0,.08,0,.12a.51.51,0,0,0,.36.6.5.5,0,0,0,.6-.36A14.52,14.52,0,0,0,125.27,386.82Z" style="fill:#dbdbdb"></path><path d="M127.44,385.86a.48.48,0,0,0-.61-.33.52.52,0,0,0-.34.62l0,.1v0s0,.09,0,.11a3.11,3.11,0,0,1,0,.32c0,.2.05.41.06.61,0,.43,0,.85,0,1.27a.5.5,0,1,0,1,0A12.32,12.32,0,0,0,127.44,385.86Z" style="fill:#dbdbdb"></path><path d="M144.7,421a.5.5,0,0,0-.6.36,6.14,6.14,0,0,0-.18,3,.5.5,0,1,0,1-.29s0-.06,0-.1l0-.17c0-.1,0-.2,0-.3a3.86,3.86,0,0,1,0-.68s0-.11,0-.16v-.09l.06-.32a4.55,4.55,0,0,1,.17-.66A.5.5,0,0,0,144.7,421Z" style="fill:#dbdbdb"></path><path d="M147.6,421.74a.51.51,0,0,0-.51-.48.49.49,0,0,0-.48.5,22.05,22.05,0,0,1,.07,3.25.49.49,0,0,0,.51.48.51.51,0,0,0,.48-.51A21.92,21.92,0,0,0,147.6,421.74Z" style="fill:#dbdbdb"></path><path d="M113.05,421.81a.51.51,0,0,0-.68.19,5.72,5.72,0,0,0-.65,2.25.5.5,0,1,0,1,0s0-.19,0,0c0,0,0-.08,0-.11s0-.16,0-.25a4.54,4.54,0,0,1,.12-.5c0-.08,0-.16.07-.23L113,423h0v0c.07-.16.14-.31.22-.47A.5.5,0,0,0,113.05,421.81Z" style="fill:#dbdbdb"></path><path d="M162,386.17a.5.5,0,0,0-.48.51c0,.2,0,.4,0,.6a.58.58,0,0,0,0,.1.51.51,0,0,1,0,.13c0,.11,0,.22-.07.33s-.05.2-.08.3l0,.14,0,.11,0,.1-.06.14c0,.1-.1.2-.16.3a.51.51,0,0,0,.2.67.5.5,0,0,0,.67-.19,5.42,5.42,0,0,0,.68-2.75A.51.51,0,0,0,162,386.17Z" style="fill:#dbdbdb"></path><path d="M200.24,407.61a8.25,8.25,0,0,0-3.91,1.07.51.51,0,0,0-.17.69.52.52,0,0,0,.69.16,7.06,7.06,0,0,1,3.41-.93.5.5,0,1,0,0-1Z" style="fill:#dbdbdb"></path><path d="M200.79,409.78l-1.91-.25a.66.66,0,0,0-.39.06.58.58,0,0,0-.22.31.52.52,0,0,0,.36.6l1.92.24a.51.51,0,0,0,.38-.06.48.48,0,0,0,.22-.3A.5.5,0,0,0,200.79,409.78Z" style="fill:#dbdbdb"></path><path d="M195.38,405.63c-31.66,0-101.4.92-109.85.92s-6-2.76-3.64-3.09S195.38,405.63,195.38,405.63Z" style="fill:#c7c7c7"></path></g></svg>